<svg id="Layer_1" data-name="Layer 1" xmlns="http://www.w3.org/2000/svg" viewBox="0 0 512 512"><defs><style>.cls-1{fill:#821eb4;}.cls-2{fill:#b450c8;}.cls-3{fill:#dff473;}.cls-4{fill:#8ee26b;}.cls-5{fill:#00a08c;}</style></defs><path class="cls-1" d="M474.4,182l-48.65,13a15,15,0,1,0,7.76,29l48.65-13,.35,1.29a15,15,0,1,0,29-7.76L503,172.89a15,15,0,1,0-29,7.77Z" transform="translate(0 0)"/><path class="cls-1" d="M500.88,289.17a15,15,0,0,0-18.37,10.6l-.35,1.3-48.65-13a15,15,0,1,0-7.76,29l48.65,13-.35,1.3a15,15,0,1,0,29,7.76l8.45-31.56a15,15,0,0,0-10.6-18.38Z" transform="translate(0 0)"/><path class="cls-2" d="M11.12,222.83a15,15,0,0,0,18.37-10.61l.35-1.29,48.65,13a15,15,0,1,0,7.76-29L37.6,182l.35-1.29a15,15,0,1,0-29-7.77L.51,204.46a15,15,0,0,0,10.61,18.37Z" transform="translate(0 0)"/><path class="cls-1" d="M339.11,9,307.54.52a15,15,0,1,0-7.77,29l1.3.35L288,78.49a15,15,0,1,0,29,7.76L330,37.6l1.3.35a15,15,0,0,0,7.77-29Z" transform="translate(0 0)"/><path class="cls-1" d="M393.71,139.5l35.62-35.61.94,1a15,15,0,0,0,21.22-21.22L428.38,60.51a15,15,0,1,0-21.22,21.22l.95,1L372.5,118.29a15,15,0,0,0,21.21,21.21Z" transform="translate(0 0)"/><path class="cls-2" d="M210.93,29.84l1.3-.35a15,15,0,0,0-7.77-29L172.9,9a15,15,0,0,0,7.76,29l1.3-.35,13,48.65a15,15,0,1,0,29-7.76Z" transform="translate(0 0)"/><path class="cls-2" d="M103.89,82.68l1-1A15,15,0,0,0,83.62,60.51L60.51,83.62a15,15,0,0,0,21.22,21.22l1-1,35.61,35.61a15,15,0,1,0,21.21-21.21Z" transform="translate(0 0)"/><path class="cls-2" d="M37.6,330.05l48.65-13a15,15,0,1,0-7.76-29l-48.65,13-.35-1.3a15,15,0,0,0-29,7.77L9,339.11a15,15,0,0,0,29-7.77Z" transform="translate(0 0)"/><path class="cls-1" d="M331.34,474.05l-1.29.34-13-48.65a15,15,0,0,0-29,7.77l13,48.65-1.3.35a15,15,0,0,0,7.77,29L339.11,503a15,15,0,1,0-7.77-29Z" transform="translate(0 0)"/><path class="cls-1" d="M430.27,407.16l-.95.95L393.71,372.5a15,15,0,0,0-21.21,21.21l35.61,35.62-.95.94a15,15,0,1,0,21.22,21.22l23.11-23.11a15,15,0,1,0-21.22-21.22Z" transform="translate(0 0)"/><path class="cls-2" d="M213.36,415.14A15,15,0,0,0,195,425.74l-13,48.65-1.29-.34a15,15,0,0,0-7.77,29l31.57,8.46a15,15,0,1,0,7.77-29l-1.3-.35,13-48.65a15,15,0,0,0-10.61-18.37Z" transform="translate(0 0)"/><path class="cls-2" d="M118.29,372.5,82.68,408.11l-1-.95a15,15,0,1,0-21.22,21.22l23.11,23.11a15,15,0,1,0,21.22-21.22l-1-.95,35.61-35.61a15,15,0,0,0-21.21-21.21Z" transform="translate(0 0)"/><circle class="cls-3" cx="256" cy="256" r="194.76"/><path class="cls-4" d="M256,450.76V61.24c107.39,0,194.76,87.37,194.76,194.76S363.39,450.76,256,450.76Z" transform="translate(0 0)"/><circle class="cls-4" cx="149.47" cy="122.84" r="15"/><circle class="cls-4" cx="89.47" cy="256" r="15"/><circle class="cls-4" cx="224.48" cy="88.84" r="15"/><circle class="cls-5" cx="308.38" cy="256" r="15"/><circle class="cls-5" cx="271" cy="256" r="15"/><circle class="cls-4" cx="101.37" cy="182.84" r="15"/><circle class="cls-5" cx="350.23" cy="256" r="15"/><circle class="cls-4" cx="90.47" cy="218.47" r="15"/><circle class="cls-5" cx="392.53" cy="256" r="15"/><circle class="cls-4" cx="181.47" cy="103.84" r="15"/><circle class="cls-5" cx="429.63" cy="256" r="15"/><circle class="cls-4" cx="121.47" cy="150.84" r="15"/><circle class="cls-4" cx="183.51" cy="143.9" r="15"/><circle class="cls-4" cx="135.41" cy="213.34" r="15"/><circle class="cls-4" cx="136.47" cy="256" r="15"/><circle class="cls-4" cx="224.48" cy="134.34" r="15"/><circle class="cls-4" cx="153.51" cy="177.34" r="15"/><circle class="cls-4" cx="224.48" cy="176.48" r="15"/><circle class="cls-4" cx="181.47" cy="256" r="15"/><circle class="cls-4" cx="188.47" cy="182.84" r="15"/><circle class="cls-4" cx="226.48" cy="256" r="15"/><circle class="cls-4" cx="226.48" cy="216.47" r="15"/><circle class="cls-4" cx="122.84" cy="367.01" r="15"/><circle class="cls-4" cx="92.84" cy="292.01" r="15"/><circle class="cls-4" cx="182.84" cy="415.11" r="15"/><circle class="cls-4" cx="224.48" cy="430.11" r="15"/><circle class="cls-4" cx="103.84" cy="335.01" r="15"/><circle class="cls-4" cx="150.84" cy="395.01" r="15"/><circle class="cls-4" cx="143.9" cy="335.53" r="15"/><circle class="cls-4" cx="224.48" cy="382.01" r="15"/><circle class="cls-4" cx="134.34" cy="292.01" r="15"/><circle class="cls-4" cx="183.51" cy="368.47" r="15"/><circle class="cls-4" cx="181.47" cy="292.01" r="15"/><circle class="cls-4" cx="224.48" cy="335.01" r="15"/><circle class="cls-4" cx="226.48" cy="292.01" r="15"/><circle class="cls-4" cx="181.47" cy="218.47" r="15"/><circle class="cls-4" cx="183.51" cy="327.01" r="15"/><circle class="cls-5" cx="308.29" cy="218.47" r="15"/><circle class="cls-5" cx="270.91" cy="218.47" r="15"/><circle class="cls-5" cx="350.14" cy="218.47" r="15"/><circle class="cls-5" cx="392.44" cy="218.47" r="15"/><circle class="cls-5" cx="429.54" cy="218.47" r="15"/><circle class="cls-5" cx="271" cy="176.48" r="15"/><circle class="cls-5" cx="346.01" cy="152.84" r="15"/><circle class="cls-5" cx="306.77" cy="176.48" r="15"/><circle class="cls-5" cx="376.01" cy="177.34" r="15"/><circle class="cls-5" cx="413.11" cy="177.34" r="15"/><circle class="cls-5" cx="271" cy="134.34" r="15"/><circle class="cls-5" cx="308.29" cy="137.84" r="15"/><circle class="cls-5" cx="365.23" cy="122.84" r="15"/><circle class="cls-5" cx="391.01" cy="143.9" r="15"/><circle class="cls-5" cx="271" cy="82.38" r="15"/><circle class="cls-5" cx="306.77" cy="88.84" r="15"/><circle class="cls-5" cx="338.1" cy="103.84" r="15"/><circle class="cls-5" cx="338.1" cy="182.84" r="15"/><circle class="cls-5" cx="272.17" cy="299.95" r="15"/><circle class="cls-5" cx="271.76" cy="341.79" r="15"/><circle class="cls-5" cx="271.36" cy="384.09" r="15"/><circle class="cls-5" cx="271" cy="421.19" r="15"/><circle class="cls-5" cx="309.69" cy="300.22" r="15"/><circle class="cls-5" cx="309.29" cy="342.07" r="15"/><circle class="cls-5" cx="308.88" cy="384.36" r="15"/><circle class="cls-5" cx="308.53" cy="421.46" r="15"/><circle class="cls-5" cx="374.96" cy="338.57" r="15"/><circle class="cls-5" cx="351.7" cy="299.11" r="15"/><circle class="cls-5" cx="350.17" cy="368.33" r="15"/><circle class="cls-5" cx="349.82" cy="405.43" r="15"/><circle class="cls-5" cx="390.32" cy="301" r="15"/><circle class="cls-5" cx="404.77" cy="358.07" r="15"/><circle class="cls-5" cx="383.47" cy="383.65" r="15"/><circle class="cls-5" cx="429.54" cy="292.01" r="15"/><circle class="cls-5" cx="419.77" cy="330.37" r="15"/><circle class="cls-5" cx="345.04" cy="330.37" r="15"/></svg>