<?xml version="1.0" encoding="utf-8"?>
<!-- Generator: Adobe Illustrator 19.0.0, SVG Export Plug-In . SVG Version: 6.00 Build 0)  -->
<svg version="1.1" id="Layer_1" xmlns="http://www.w3.org/2000/svg" xmlns:xlink="http://www.w3.org/1999/xlink" x="0px" y="0px"
	 viewBox="25 -25 300 300" style="enable-background:new 25 -25 300 300;" xml:space="preserve">
<style type="text/css">
	.st0{fill:#A158ED;}
	.st1{fill:#8D3FD0;}
</style>
<g>
	<g>
		<path class="st0" d="M244.1,109.9c-1.3,2.4-2.1,5.1-2.1,7.9c-3.5-0.3-6.9-0.5-10.4-0.7c-7.5,17.4-22.6,30.9-41,36.3
			c-0.1,4.6-0.2,9.1-0.5,13.7l-0.1,0c-1.6,0-3.1,0.4-4.4,1c-1-4.3-2-8.6-3.1-12.9c-3.3,0.5-6.6,0.8-10.1,0.8
			c-13.2,0-25.5-4-35.7-10.7c-1.7,1.2-3.4,2.4-5.2,3.6c-0.8-1.4-2.1-2.5-3.6-3.1c1.2-1.5,2.3-3,3.3-4.5
			c-12.1-10-20.4-24.2-22.7-40.5c-3.3-0.4-6.7-0.7-10.1-1.1c0.4-0.6,0.6-1.2,0.8-1.9c0.9-2.7,1-5.5,0.4-8.1c2.8-0.8,5.5-1.6,8.3-2.3
			c0.6-10.1,3.6-19.7,8.4-28c-2.9-3.9-5.9-7.9-9.1-11.7c1.5-0.5,2.8-1.6,3.6-3c3.4,2.5,6.9,5,10.3,7.5C133,36.9,151.5,27.1,172.3,27
			c5,0,10,0.6,14.7,1.7c1.3-3,2.6-6,3.9-9c2.1,1.8,4.7,3,7.6,3.5c-0.5,2.9-0.9,5.8-1.4,8.7c15.4,6.3,27.7,18.4,34.4,33.6
			c2.1-0.7,4.1-1.5,6.2-2.3c0.7,2,2,3.7,3.5,5.1c-2.4,1.3-4.7,2.7-7.1,4c1.9,6,2.9,12.4,2.9,19.1c0,5.6-0.7,11-2,16.1
			C237.9,108.4,241.1,109.2,244.1,109.9z"/>
		<path class="st1" d="M242,117.9c0.1-2.9,0.8-5.5,2.1-7.9c3.1-5.8,9.2-9.8,16.2-9.8c10.1,0,18.4,8.2,18.4,18.4
			c0,10.2-8.3,18.4-18.4,18.4c-10.2,0-18.4-8.2-18.4-18.4C241.9,118.4,241.9,118.1,242,117.9z"/>
		<path class="st1" d="M237.6,63.3c-0.5-1.4-0.8-2.8-0.8-4.3c0-7,5.7-12.7,12.7-12.7s12.7,5.7,12.7,12.7c0,7-5.7,12.7-12.7,12.7
			c-3.2,0-6.2-1.2-8.4-3.2C239.6,67,238.3,65.3,237.6,63.3z"/>
		<path class="st1" d="M198.4,23.2c-2.9-0.5-5.4-1.7-7.6-3.5c-3.3-2.8-5.5-7.1-5.5-11.8c0-8.6,6.9-15.6,15.5-15.6
			c8.6,0,15.6,6.9,15.6,15.5c0,8.6-6.9,15.6-15.5,15.6C200.1,23.4,199.2,23.4,198.4,23.2z"/>
		<path class="st1" d="M192.2,100.3c5.7,0,10.4,4.6,10.4,10.4c0,5.7-4.6,10.4-10.4,10.4c-5.7,0-10.3-4.6-10.3-10.4
			C181.9,104.9,186.5,100.3,192.2,100.3z"/>
		<path class="st1" d="M190.1,167.1c5.4,0.1,9.7,4.4,9.7,9.8c0,5.4-4.4,9.9-9.8,9.9c-5.4,0-9.8-4.4-9.8-9.9c0-3.9,2.2-7.2,5.4-8.8
			c1.3-0.7,2.8-1,4.4-1C190,167.1,190.1,167.1,190.1,167.1z"/>
		<path class="st1" d="M148.4,56c14.7,0,26.6,11.9,26.6,26.6c0,14.7-11.9,26.7-26.6,26.7c-14.7,0-26.7-11.9-26.7-26.6
			C121.8,67.9,133.7,56,148.4,56z"/>
		<path class="st1" d="M158.9,123.2c4.7,0,8.5,3.8,8.5,8.5c0,4.7-3.8,8.5-8.5,8.5c-4.7,0-8.5-3.8-8.5-8.5
			C150.5,127,154.2,123.2,158.9,123.2z"/>
		<path class="st1" d="M128,145.8c1.5,0.6,2.8,1.7,3.6,3.1c0.8,1.2,1.2,2.5,1.2,4.1c0,4.3-3.5,7.8-7.8,7.8c-4.3,0-7.8-3.5-7.8-7.7
			c0-4.3,3.5-7.8,7.7-7.8C126.1,145.2,127.1,145.4,128,145.8z"/>
		<path class="st1" d="M110.9,44.8c-0.8,1.4-2,2.5-3.6,3c-0.7,0.3-1.4,0.4-2.1,0.4c-3.7,0-6.6-3-6.6-6.6c0-3.7,3-6.6,6.6-6.6
			c3.6,0,6.6,3,6.6,6.6C111.8,42.7,111.4,43.8,110.9,44.8z"/>
		<path class="st1" d="M99.7,89.8c0.6,2.6,0.5,5.4-0.4,8.1c-0.2,0.7-0.5,1.3-0.8,1.9c-3.3,6.7-11.1,10.1-18.4,7.7
			c-8-2.7-12.3-11.3-9.6-19.2c2.7-8,11.2-12.3,19.2-9.6C94.9,80.4,98.6,84.7,99.7,89.8z"/>
	</g>
	<g>
		<path class="st0" d="M170.4,224.5c0,16.9-13.7,30.7-30.6,30.7c-16.9,0-30.7-13.7-30.7-30.6c0-16.9,13.7-30.7,30.6-30.7
			C156.6,193.8,170.4,207.5,170.4,224.5z"/>
		<path class="st1" d="M146.3,226.1c4,0,7.2,3.2,7.2,7.2c0,4-3.2,7.2-7.2,7.2c-4,0-7.3-3.2-7.3-7.2
			C139.1,229.4,142.3,226.2,146.3,226.1z"/>
		<path class="st1" d="M129.3,203.6c6,0,10.8,4.8,10.8,10.8c0,6-4.8,10.8-10.8,10.8c-6,0-10.8-4.8-10.8-10.8
			C118.5,208.4,123.4,203.6,129.3,203.6z"/>
		<circle class="st1" cx="129.3" cy="235.9" r="4.7"/>
	</g>
</g>
</svg>
